<svg width="1247" height="1186" viewBox="0 0 1247 1186" fill="none" xmlns="http://www.w3.org/2000/svg">
<path opacity="0.5" d="M23.4374 -36.3582C-101.811 78.0173 -121.22 294.294 -206.046 453.848C-235.575 509.368 -273.73 559.056 -293.637 620.647C-339.34 761.625 -276.439 921.541 -192.249 1033.51C-152.104 1086.93 -105.212 1135.86 -48.4766 1158.38C-4.84708 1175.69 41.9344 1176.41 87.8587 1176.86L892.433 1185.88C982.263 1186.87 1082.07 1183.3 1146.66 1107.73C1191.18 1055.7 1209.26 979.705 1224.6 907.172C1243.46 818.047 1260.55 721.256 1231.21 636.368C1197.7 539.247 1112.96 484.208 1060.32 400.403C974.881 264.625 976.844 59.2603 868.047 -49.1334C817.256 -99.7232 750.236 -119.562 684.93 -129.482C561.811 -148.209 445.189 -112.859 324.282 -117.789C220.931 -121.997 109.176 -114.663 23.4374 -36.3582Z" fill="#DEF9C4"/>
</svg>
