<svg width="1402" height="1633" viewBox="0 0 1402 1633" fill="none" xmlns="http://www.w3.org/2000/svg">
<path opacity="0.5" d="M1037.73 1511.06C1174.97 1369.67 1196.24 1102.31 1289.19 905.075C1321.54 836.442 1363.35 775.019 1385.17 698.88C1435.25 524.606 1366.32 326.921 1274.07 188.504C1230.08 122.473 1178.7 61.9783 1116.53 34.1464C1068.72 12.7429 1023.32 0.703369 973 0.145996L85.5199 0.145996C-12.9124 -1.0802 -122.282 3.34167 -193.054 96.7589C-241.83 161.081 -261.644 255.019 -278.459 344.683C-299.121 454.859 -317.844 574.51 -285.699 679.446C-248.98 799.506 -156.123 867.544 -98.4386 971.143C-4.82336 1138.99 -6.97437 1392.86 112.241 1526.85C167.895 1589.39 241.333 1613.92 312.893 1626.18C447.802 1649.33 575.591 1605.63 708.076 1611.72C821.323 1616.93 943.78 1607.86 1037.73 1511.06Z" fill="#DEF9C4"/>
</svg>
